<?xml version="1.0" encoding="UTF-8"?>
<svg xmlns="http://www.w3.org/2000/svg" xmlns:xlink="http://www.w3.org/1999/xlink" width="720pt" height="719.999996pt" viewBox="0 0 720 719.999996" version="1.2">
<defs>
<clipPath id="clip1">
  <path d="M 33 565 L 226 565 L 226 598.933594 L 33 598.933594 Z M 33 565 "/>
</clipPath>
<clipPath id="clip2">
  <path d="M 110 121.183594 L 161 121.183594 L 161 181 L 110 181 Z M 110 121.183594 "/>
</clipPath>
<clipPath id="clip3">
  <path d="M 298 571 L 467 571 L 467 598.933594 L 298 598.933594 Z M 298 571 "/>
</clipPath>
<clipPath id="clip4">
  <path d="M 508 569 L 686.574219 569 L 686.574219 598.933594 L 508 598.933594 Z M 508 569 "/>
</clipPath>
</defs>
<g id="surface1">
<path style=" stroke:none;fill-rule:nonzero;fill:rgb(69.799805%,89.7995%,90.979004%);fill-opacity:1;" d="M 598.816406 317.597656 C 591.625 284.589844 578.683594 253.664062 558.433594 231.84375 C 510.503906 180.1875 443.089844 202.382812 385.269531 234.929688 C 358.078125 250.234375 340.34375 252.050781 312.460938 235.414062 C 280.714844 216.472656 235.875 173.109375 192.839844 188.160156 C 156.5 200.867188 126.992188 239.253906 119.742188 273.230469 C 110.273438 317.59375 124.390625 376.769531 170.835938 406.488281 C 200.199219 425.28125 240.589844 420.636719 262.550781 451.734375 C 281.304688 478.292969 310.941406 515.679688 344.195312 526.34375 C 361.0625 531.753906 388.128906 531.019531 403.003906 520.839844 C 416.425781 511.660156 420.800781 491.660156 436.945312 485.953125 C 449.042969 481.679688 472.542969 488.058594 485.75 488.0625 C 499.613281 488.0625 513.773438 487.761719 527.382812 484.84375 C 549.292969 480.136719 567.324219 469.484375 579.535156 450.355469 C 599.851562 418.53125 607.574219 357.8125 598.816406 317.597656 "/>
<g clip-path="url(#clip1)" clip-rule="nonzero">
<path style=" stroke:none;fill-rule:nonzero;fill:rgb(90.19928%,76.078796%,65.489197%);fill-opacity:1;" d="M 33.207031 582.15625 C 33.207031 591.457031 76.292969 598.996094 129.445312 598.996094 C 182.597656 598.996094 225.683594 591.457031 225.683594 582.15625 C 225.683594 572.851562 182.597656 565.316406 129.445312 565.316406 C 76.292969 565.316406 33.207031 572.851562 33.207031 582.15625 "/>
</g>
<path style=" stroke:none;fill-rule:nonzero;fill:rgb(96.859741%,67.449951%,50.19989%);fill-opacity:1;" d="M 176.210938 244.546875 L 175.148438 293.0625 C 175.148438 293.0625 175.980469 298.921875 168.78125 303.898438 C 168.78125 303.898438 159.597656 313.886719 152.480469 287.292969 L 144.96875 240.371094 C 144.96875 240.371094 163.042969 219.476562 176.210938 244.546875 "/>
<path style=" stroke:none;fill-rule:nonzero;fill:rgb(96.859741%,67.449951%,50.19989%);fill-opacity:1;" d="M 161.660156 307.816406 L 185.058594 320.117188 L 216.472656 331.332031 L 219.808594 324.941406 L 194.078125 305.773438 C 182.128906 297.898438 175.148438 293.0625 175.148438 293.0625 L 152.480469 287.292969 L 155.15625 298.40625 C 155.15625 298.40625 155.28125 304.207031 161.660156 307.816406 "/>
<path style=" stroke:none;fill-rule:nonzero;fill:rgb(96.859741%,67.449951%,50.19989%);fill-opacity:1;" d="M 219.40625 324.851562 L 229.007812 324.976562 L 238.257812 327.394531 L 234.097656 329.414062 L 244.636719 334.230469 C 244.636719 334.230469 240.96875 339.355469 238.121094 340.738281 C 238.121094 340.738281 226.917969 341.601562 223.5 338.257812 L 216.074219 331.242188 L 219.40625 324.851562 "/>
<path style=" stroke:none;fill-rule:nonzero;fill:rgb(81.17981%,79.60968%,85.488892%);fill-opacity:1;" d="M 154.023438 303.277344 C 154.023438 303.277344 188.292969 325.535156 211.414062 333.183594 C 211.414062 333.183594 221.179688 331.144531 219.808594 321.640625 L 178.789062 290.601562 C 183.980469 240.605469 167.871094 218.835938 167.871094 218.835938 C 161.828125 214.359375 151.339844 219.519531 151.339844 219.519531 C 142.601562 223.832031 142.261719 234.988281 142.746094 243.414062 C 142.746094 243.414062 146.59375 272.933594 154.023438 303.277344 "/>
<path style=" stroke:none;fill-rule:nonzero;fill:rgb(29.019165%,15.289307%,10.978699%);fill-opacity:1;" d="M 151.9375 167.472656 C 151.9375 168.929688 151.53125 172.542969 151.519531 175.902344 C 156.984375 166.214844 160.332031 153.460938 160.550781 142.257812 C 160.550781 133.824219 160.710938 133.929688 158.996094 132.816406 C 155.375 130.449219 146.621094 134.988281 147.023438 143.152344 C 147.265625 147.984375 150.613281 153.429688 151.386719 157.859375 C 151.9375 161.019531 151.9375 164.1875 151.9375 167.472656 "/>
<path style=" stroke:none;fill-rule:nonzero;fill:rgb(96.859741%,67.449951%,50.19989%);fill-opacity:1;" d="M 155.832031 566.488281 L 167.105469 566.457031 L 167.0625 548.160156 L 155.792969 548.1875 L 155.832031 566.488281 "/>
<path style=" stroke:none;fill-rule:nonzero;fill:rgb(27.059937%,11.759949%,7.449341%);fill-opacity:1;" d="M 166.925781 562.886719 L 173.089844 567.714844 L 199.203125 579.84375 C 199.203125 579.84375 202.515625 581.386719 198.765625 583.164062 L 176.667969 583.222656 L 167.105469 581.773438 L 153.066406 578.148438 L 155.675781 562.917969 L 166.925781 562.886719 "/>
<path style=" stroke:none;fill-rule:nonzero;fill:rgb(27.059937%,56.858826%,73.329163%);fill-opacity:1;" d="M 167.386719 335.738281 L 114.773438 335.738281 L 137.898438 446.757812 L 141.410156 476.507812 L 153.066406 565.53125 C 153.066406 565.53125 160.769531 566.941406 168.667969 563.878906 L 170.445312 437.691406 L 167.386719 335.738281 "/>
<path style=" stroke:none;fill-rule:nonzero;fill:rgb(96.859741%,67.449951%,50.19989%);fill-opacity:1;" d="M 108.460938 566.941406 L 97.191406 566.671875 L 97.625 548.378906 L 108.894531 548.648438 L 108.460938 566.941406 "/>
<path style=" stroke:none;fill-rule:nonzero;fill:rgb(27.059937%,11.759949%,7.449341%);fill-opacity:1;" d="M 97.441406 563.105469 L 78.648438 573.289062 L 64.816406 579.355469 C 64.816406 579.355469 61.46875 580.828125 65.179688 582.683594 L 87.273438 583.222656 L 96.863281 581.980469 L 110.976562 578.664062 L 108.695312 563.375 L 97.441406 563.105469 "/>
<path style=" stroke:none;fill-rule:nonzero;fill:rgb(36.079407%,63.919067%,80.389404%);fill-opacity:1;" d="M 137.898438 336.488281 L 124 439.527344 L 122.703125 462.355469 L 109.292969 563.636719 C 102.015625 566.488281 92.851562 564.738281 92.851562 564.738281 L 90.253906 454.773438 L 90.078125 336.488281 L 137.898438 336.488281 "/>
<path style=" stroke:none;fill-rule:nonzero;fill:rgb(96.859741%,67.449951%,50.19989%);fill-opacity:1;" d="M 123.074219 210.203125 L 145.894531 210.203125 L 145.894531 187.835938 L 123.074219 187.835938 L 123.074219 210.203125 "/>
<path style=" stroke:none;fill-rule:nonzero;fill:rgb(96.078491%,58.81958%,41.569519%);fill-opacity:1;" d="M 123.074219 193.710938 L 123.074219 187.835938 L 145.894531 187.835938 L 145.894531 200.792969 C 137.738281 201.398438 126.332031 200.855469 123.074219 193.710938 "/>
<path style=" stroke:none;fill-rule:nonzero;fill:rgb(96.859741%,67.449951%,50.19989%);fill-opacity:1;" d="M 119.074219 219.09375 L 114.332031 206.085938 L 123.074219 203.515625 L 145.933594 203.515625 L 162.429688 212.398438 L 159.144531 219.09375 L 119.074219 219.09375 "/>
<path style=" stroke:none;fill-rule:nonzero;fill:rgb(81.959534%,17.649841%,23.919678%);fill-opacity:1;" d="M 169.878906 278.578125 C 169.878906 278.578125 171.296875 361.765625 170.769531 359.394531 C 126.476562 374.375 85.71875 358.925781 85.71875 358.925781 L 85.71875 230.726562 C 85.71875 213.363281 100.675781 210.203125 100.675781 210.203125 L 123.074219 202.609375 C 125.058594 213.191406 140.328125 211.375 140.328125 211.375 C 149.964844 211.304688 145.933594 203.515625 145.933594 203.515625 L 162.429688 212.398438 C 162.429688 212.398438 167.96875 216.671875 168.34375 228.144531 L 169.878906 278.578125 "/>
<path style=" stroke:none;fill-rule:nonzero;fill:rgb(96.859741%,67.449951%,50.19989%);fill-opacity:1;" d="M 150.621094 188 C 147.042969 194.945312 143.253906 196.214844 143.253906 196.214844 C 143.253906 196.214844 139.007812 197.324219 136.339844 196.449219 C 133.855469 195.527344 129.316406 193.359375 129.316406 193.359375 C 119.949219 187.558594 119.152344 186.710938 118.269531 180.929688 C 118.242188 180.75 117.535156 151.792969 117.535156 151.792969 C 119.503906 137.273438 135.050781 137.742188 137.375 137.894531 C 139.714844 137.890625 154.769531 137.214844 155.8125 151.828125 C 155.8125 151.828125 156.355469 158.785156 155.578125 168.914062 C 155.578125 168.914062 155.863281 178.320312 150.621094 188 "/>
<g clip-path="url(#clip2)" clip-rule="nonzero">
<path style=" stroke:none;fill-rule:nonzero;fill:rgb(29.019165%,15.289307%,10.978699%);fill-opacity:1;" d="M 117.066406 134.101562 C 109.042969 136.066406 111.226562 150.011719 111.226562 150.011719 C 113.625 166.128906 113.820312 174.1875 118.269531 180.929688 C 118.90625 178.464844 119.050781 174.003906 119.292969 171.328125 C 120.015625 163.472656 119.84375 162.199219 120.78125 155.800781 C 121.40625 151.546875 122.132812 151.511719 126.261719 150.117188 C 129.054688 149.171875 136.765625 147.78125 139.242188 149.796875 C 139.242188 149.796875 142.898438 146.609375 155.726562 150.957031 C 155.726562 150.957031 165.398438 135.59375 157.347656 124.585938 C 157.347656 124.585938 154.40625 128.925781 151.308594 129.234375 C 151.308594 129.234375 152.15625 124.585938 147.007812 121.175781 C 147.007812 121.175781 144.980469 126.753906 136.765625 127.21875 C 136.765625 127.21875 117.535156 125.671875 117.066406 134.101562 "/>
</g>
<path style=" stroke:none;fill-rule:nonzero;fill:rgb(96.859741%,67.449951%,50.19989%);fill-opacity:1;" d="M 122.425781 174.105469 C 122.425781 174.105469 121.65625 161.140625 113.238281 164.6875 C 113.238281 164.6875 110.539062 165.945312 112.292969 171.269531 C 112.292969 171.269531 114.839844 178.9375 120.601562 176.347656 L 122.425781 174.105469 "/>
<path style=" stroke:none;fill-rule:nonzero;fill:rgb(36.079407%,63.919067%,80.389404%);fill-opacity:1;" d="M 106.96875 367.984375 C 106.96875 367.984375 105.113281 382.246094 92.726562 384.109375 L 92.726562 407.984375 L 114.773438 407.984375 L 114.773438 367.984375 L 106.96875 367.984375 "/>
<path style=" stroke:none;fill-rule:nonzero;fill:rgb(89.408875%,85.099792%,90.589905%);fill-opacity:1;" d="M 84.792969 439.195312 L 84.792969 253.636719 L 84.941406 229.273438 C 84.792969 212.40625 102.5625 209.308594 102.5625 209.308594 L 120.101562 203.515625 C 120.101562 203.515625 124.242188 219.03125 133.296875 240.960938 L 125.875 454.328125 C 125.875 454.328125 93.085938 452.246094 84.792969 439.195312 "/>
<path style=" stroke:none;fill-rule:nonzero;fill:rgb(76.858521%,77.648926%,83.918762%);fill-opacity:1;" d="M 113.988281 205.539062 C 114.355469 209.335938 114.570312 213.140625 114.789062 216.9375 C 114.984375 220.742188 115.125 224.542969 115.242188 228.34375 L 114.335938 227.136719 C 115.9375 227.523438 117.527344 227.96875 119.121094 228.386719 C 120.714844 228.8125 122.316406 229.210938 123.898438 229.664062 L 126.238281 230.34375 L 124.554688 232.117188 C 122.015625 234.785156 119.507812 237.488281 116.921875 240.109375 L 117.195312 238.417969 C 118.609375 241.460938 120.023438 244.5 121.378906 247.566406 C 122.761719 250.625 124.109375 253.699219 125.429688 256.78125 C 126.769531 259.859375 128.046875 262.964844 129.324219 266.070312 C 130.589844 269.179688 130.132812 269.398438 131.289062 272.5625 C 129.585938 269.652344 129.675781 269.613281 128.074219 266.660156 C 126.492188 263.699219 124.910156 260.738281 123.390625 257.746094 C 121.851562 254.761719 120.339844 251.765625 118.867188 248.757812 C 117.363281 245.757812 115.914062 242.734375 114.46875 239.707031 L 114.027344 238.78125 L 114.742188 238.015625 C 117.261719 235.320312 119.859375 232.703125 122.421875 230.058594 L 123.078125 232.507812 C 121.492188 232.054688 119.929688 231.535156 118.351562 231.046875 C 116.785156 230.546875 115.203125 230.078125 113.640625 229.546875 L 112.703125 229.238281 L 112.730469 228.34375 C 112.847656 224.542969 112.992188 220.742188 113.191406 216.9375 C 113.402344 213.140625 113.621094 209.335938 113.988281 205.539062 "/>
<path style=" stroke:none;fill-rule:nonzero;fill:rgb(76.858521%,77.648926%,83.918762%);fill-opacity:1;" d="M 100.148438 370.484375 L 123.542969 379.019531 L 123.542969 386.207031 L 100.148438 376.839844 L 100.148438 370.484375 "/>
<path style=" stroke:none;fill-rule:nonzero;fill:rgb(96.859741%,67.449951%,50.19989%);fill-opacity:1;" d="M 97.613281 258.359375 L 78.0625 306.226562 C 78.0625 306.226562 75.851562 311.71875 67.132812 312.414062 C 67.132812 312.414062 54.1875 316.449219 61.335938 289.867188 L 74.597656 244.121094 C 74.597656 244.121094 98.757812 230.050781 97.613281 258.359375 "/>
<path style=" stroke:none;fill-rule:nonzero;fill:rgb(96.859741%,67.449951%,50.19989%);fill-opacity:1;" d="M 60.90625 311.800781 L 70.980469 336.265625 L 87.894531 365.046875 L 94.546875 362.292969 L 87.085938 331.058594 C 82.960938 317.335938 80.703125 309.144531 80.703125 309.144531 L 67.011719 290.15625 L 61.941406 300.402344 C 61.941406 300.402344 58.328125 304.929688 60.90625 311.800781 "/>
<path style=" stroke:none;fill-rule:nonzero;fill:rgb(96.859741%,67.449951%,50.19989%);fill-opacity:1;" d="M 94.292969 361.960938 L 101.585938 368.226562 L 107.128906 376.023438 L 102.644531 374.898438 L 107.640625 385.363281 C 107.640625 385.363281 101.546875 386.941406 98.472656 386.167969 C 98.472656 386.167969 89.335938 379.636719 88.847656 374.875 L 87.640625 364.722656 L 94.292969 361.960938 "/>
<path style=" stroke:none;fill-rule:nonzero;fill:rgb(81.17981%,79.60968%,85.488892%);fill-opacity:1;" d="M 56.808594 301.167969 C 56.808594 301.167969 73.042969 233.003906 90.03125 215.648438 C 90.03125 215.648438 96.273438 209.027344 104.632812 214.140625 C 104.632812 214.140625 113.636719 222 110.609375 233.417969 L 81.167969 305.316406 C 81.167969 305.316406 92.207031 344.53125 96.097656 359.890625 C 96.097656 359.890625 91.488281 367.976562 81.996094 366.410156 L 56.808594 301.167969 "/>
<path style=" stroke:none;fill-rule:nonzero;fill:rgb(89.408875%,85.099792%,90.589905%);fill-opacity:1;" d="M 177.730469 440.394531 L 171.71875 258.859375 L 172.542969 234.472656 C 172.210938 219.09375 161.621094 211.871094 161.621094 211.871094 L 149.15625 204.832031 C 149.15625 204.832031 147.625 217.132812 138.5625 239.070312 L 143.953125 454.726562 C 143.953125 454.726562 169.4375 453.449219 177.730469 440.394531 "/>
<path style=" stroke:none;fill-rule:nonzero;fill:rgb(76.858521%,77.648926%,83.918762%);fill-opacity:1;" d="M 155.421875 208.535156 C 155.054688 212.335938 154.6875 214.445312 154.46875 218.253906 C 154.277344 222.054688 154.128906 225.855469 154.015625 229.65625 L 154.917969 228.449219 C 153.316406 228.835938 151.730469 229.277344 150.132812 229.695312 C 148.542969 230.125 146.941406 230.515625 145.359375 230.976562 L 143.019531 231.652344 L 144.703125 233.425781 C 147.242188 236.097656 149.746094 238.796875 152.339844 241.421875 L 152.066406 239.730469 C 150.648438 242.769531 149.234375 245.8125 147.878906 248.882812 C 146.496094 251.9375 145.144531 255.007812 143.824219 258.09375 C 142.484375 261.171875 141.207031 264.277344 139.929688 267.382812 C 138.667969 270.496094 140.027344 270.40625 138.871094 273.5625 C 140.570312 270.660156 139.582031 270.929688 141.183594 267.972656 C 142.765625 265.011719 144.347656 262.046875 145.867188 259.058594 C 147.40625 256.078125 148.914062 253.085938 150.390625 250.066406 C 151.894531 247.070312 153.34375 244.050781 154.789062 241.019531 L 155.230469 240.101562 L 154.511719 239.332031 C 151.996094 236.636719 149.398438 234.019531 146.835938 231.375 L 146.175781 233.820312 C 147.765625 233.359375 149.328125 232.84375 150.902344 232.359375 C 152.476562 231.859375 154.054688 231.390625 155.617188 230.867188 L 156.554688 230.550781 L 156.527344 229.65625 C 156.410156 225.855469 156.265625 222.054688 156.066406 218.253906 C 155.851562 214.445312 155.789062 212.335938 155.421875 208.535156 "/>
<path style=" stroke:none;fill-rule:nonzero;fill:rgb(76.858521%,77.648926%,83.918762%);fill-opacity:1;" d="M 169.109375 371.796875 L 145.710938 380.328125 L 145.710938 387.519531 L 169.109375 378.152344 L 169.109375 371.796875 "/>
<path style=" stroke:none;fill-rule:nonzero;fill:rgb(9.01947%,44.709778%,76.078796%);fill-opacity:1;" d="M 132.324219 261.011719 L 134.160156 261.011719 L 134.160156 270.667969 C 134.160156 273.820312 132.46875 276.769531 129.746094 278.363281 L 128.824219 276.777344 C 130.980469 275.511719 132.324219 273.171875 132.324219 270.667969 L 132.324219 261.011719 "/>
<path style=" stroke:none;fill-rule:nonzero;fill:rgb(5.488586%,8.239746%,18.429565%);fill-opacity:1;" d="M 129.210938 275.972656 L 122.558594 275.109375 C 121.730469 275.109375 121.058594 276.210938 121.058594 277.570312 C 121.058594 278.925781 121.730469 280.027344 122.558594 280.027344 L 129.210938 279.167969 C 129.210938 279.167969 130.085938 278.898438 130.082031 277.570312 C 130.082031 277.570312 130.210938 276.097656 129.210938 275.972656 "/>
<path style=" stroke:none;fill-rule:nonzero;fill:rgb(9.01947%,44.709778%,76.078796%);fill-opacity:1;" d="M 99.304688 261.011719 L 101.144531 261.011719 L 101.144531 270.667969 C 101.144531 273.171875 102.484375 275.511719 104.640625 276.777344 L 103.71875 278.363281 C 100.996094 276.769531 99.304688 273.820312 99.304688 270.667969 L 99.304688 261.011719 "/>
<path style=" stroke:none;fill-rule:nonzero;fill:rgb(5.488586%,8.239746%,18.429565%);fill-opacity:1;" d="M 104.253906 275.972656 L 110.914062 275.109375 C 111.738281 275.109375 112.40625 276.210938 112.40625 277.570312 C 112.40625 278.925781 111.738281 280.027344 110.914062 280.027344 L 104.253906 279.167969 C 104.253906 279.167969 103.378906 278.898438 103.382812 277.570312 C 103.382812 277.570312 103.253906 276.097656 104.253906 275.972656 "/>
<path style=" stroke:none;fill-rule:nonzero;fill:rgb(12.159729%,17.248535%,38.819885%);fill-opacity:1;" d="M 116.75 238.875 C 126.734375 238.875 134.851562 247 134.851562 257 L 134.851562 261.601562 L 131.632812 261.601562 L 131.632812 257 C 131.632812 248.777344 124.960938 242.089844 116.75 242.089844 C 108.546875 242.089844 101.871094 248.777344 101.871094 257 L 101.871094 261.601562 L 98.652344 261.601562 L 98.652344 257 C 98.652344 247 106.769531 238.875 116.75 238.875 "/>
<path style=" stroke:none;fill-rule:nonzero;fill:rgb(5.488586%,8.239746%,18.429565%);fill-opacity:1;" d="M 114.003906 237.6875 L 119.5 237.6875 L 119.5 242.390625 L 114.003906 242.390625 L 114.003906 237.6875 "/>
<path style=" stroke:none;fill-rule:nonzero;fill:rgb(12.159729%,17.248535%,38.819885%);fill-opacity:1;" d="M 123.03125 200.671875 C 118.792969 202.582031 115.832031 206.839844 115.832031 211.792969 L 115.832031 238.1875 L 117.671875 238.1875 L 117.671875 211.792969 C 117.671875 207.886719 119.839844 204.480469 123.03125 202.710938 L 123.03125 200.671875 "/>
<path style=" stroke:none;fill-rule:nonzero;fill:rgb(37.649536%,35.688782%,70.199585%);fill-opacity:1;" d="M 160.957031 266.816406 C 160.957031 270.511719 157.960938 273.511719 154.269531 273.511719 C 150.574219 273.511719 147.585938 270.511719 147.585938 266.816406 C 147.585938 263.117188 150.574219 260.121094 154.269531 260.121094 C 157.960938 260.121094 160.957031 263.117188 160.957031 266.816406 "/>
<path style=" stroke:none;fill-rule:nonzero;fill:rgb(23.529053%,30.198669%,63.529968%);fill-opacity:1;" d="M 157.871094 266.816406 C 157.871094 268.804688 156.257812 270.417969 154.269531 270.417969 C 152.277344 270.417969 150.667969 268.804688 150.667969 266.816406 C 150.667969 264.824219 152.277344 263.210938 154.269531 263.210938 C 156.257812 263.210938 157.871094 264.824219 157.871094 266.816406 "/>
<path style=" stroke:none;fill-rule:nonzero;fill:rgb(12.159729%,17.248535%,38.819885%);fill-opacity:1;" d="M 146.300781 201.621094 L 146.113281 201.519531 L 145.894531 201.519531 L 145.894531 203.476562 C 153.242188 207.480469 153.355469 216.675781 153.355469 216.769531 L 153.355469 260.121094 L 155.183594 260.121094 L 155.183594 216.769531 C 155.183594 216.332031 155.082031 206.011719 146.300781 201.621094 "/>
<g clip-path="url(#clip3)" clip-rule="nonzero">
<path style=" stroke:none;fill-rule:nonzero;fill:rgb(90.19928%,76.078796%,65.489197%);fill-opacity:1;" d="M 298.429688 585.183594 C 298.429688 592.8125 336.09375 598.996094 382.554688 598.996094 C 429.019531 598.996094 466.683594 592.8125 466.683594 585.183594 C 466.683594 577.546875 429.019531 571.367188 382.554688 571.367188 C 336.09375 571.367188 298.429688 577.546875 298.429688 585.183594 "/>
</g>
<path style=" stroke:none;fill-rule:nonzero;fill:rgb(96.859741%,67.449951%,50.19989%);fill-opacity:1;" d="M 350.667969 256.019531 L 337.800781 296.042969 L 333.027344 297.269531 L 322.8125 297 L 334.546875 239.15625 C 334.546875 239.15625 338.890625 231.824219 346.695312 230.027344 C 346.695312 230.027344 353.429688 241.574219 350.667969 256.019531 "/>
<path style=" stroke:none;fill-rule:nonzero;fill:rgb(96.859741%,67.449951%,50.19989%);fill-opacity:1;" d="M 324.585938 288.957031 L 337.777344 296.148438 L 301.636719 341.871094 L 296.808594 338.488281 L 314.765625 302.148438 L 324.585938 288.957031 "/>
<path style=" stroke:none;fill-rule:nonzero;fill:rgb(96.859741%,67.449951%,50.19989%);fill-opacity:1;" d="M 298.085938 348.523438 C 298.085938 348.523438 300.792969 346.949219 305.0625 337.539062 L 300.988281 333.054688 C 300.988281 333.054688 289.324219 335.714844 289.078125 346.574219 C 289.078125 346.574219 294.433594 352.417969 298.085938 348.523438 "/>
<path style=" stroke:none;fill-rule:nonzero;fill:rgb(89.408875%,85.099792%,90.589905%);fill-opacity:1;" d="M 346.679688 229.078125 C 346.679688 229.078125 334.855469 231.710938 333.003906 238.75 L 322.8125 288.957031 L 312.257812 302.671875 L 296.808594 331.550781 C 296.808594 331.550781 301.109375 338.949219 307.921875 338.019531 L 338.976562 297.269531 L 353.3125 255.164062 C 353.3125 255.164062 359.46875 233.234375 346.679688 229.078125 "/>
<path style=" stroke:none;fill-rule:nonzero;fill:rgb(38.42926%,21.958923%,10.5896%);fill-opacity:1;" d="M 388.605469 155.316406 C 411.664062 169.949219 408.734375 194.777344 406.875 218.753906 C 405.222656 240.085938 404.757812 262.003906 401.714844 283.136719 C 388.378906 271.554688 392.089844 238.5 391.726562 221.90625 C 391.5 211.511719 390.710938 201.46875 389.953125 191.085938 C 389.25 181.449219 386.675781 169.671875 388.226562 160.261719 L 388.605469 155.316406 "/>
<path style=" stroke:none;fill-rule:nonzero;fill:rgb(46.669006%,27.059937%,13.328552%);fill-opacity:1;" d="M 346.085938 160.929688 C 344.246094 164.527344 343.714844 182.058594 348.878906 196.4375 C 351.945312 204.964844 364.015625 184.773438 368.804688 176.667969 C 372.375 170.621094 370.710938 161.652344 366.246094 156.507812 C 360.042969 149.351562 350.027344 153.234375 346.085938 160.929688 "/>
<path style=" stroke:none;fill-rule:nonzero;fill:rgb(96.859741%,67.449951%,50.19989%);fill-opacity:1;" d="M 389.066406 258.332031 L 401.929688 298.355469 L 406.707031 299.585938 L 416.917969 299.308594 L 405.1875 241.472656 C 405.1875 241.472656 400.84375 234.136719 393.039062 232.339844 C 393.039062 232.339844 386.304688 243.882812 389.066406 258.332031 "/>
<path style=" stroke:none;fill-rule:nonzero;fill:rgb(96.859741%,67.449951%,50.19989%);fill-opacity:1;" d="M 415.148438 291.273438 L 401.957031 298.464844 L 438.09375 344.1875 L 442.925781 340.800781 L 424.96875 304.464844 L 415.148438 291.273438 "/>
<path style=" stroke:none;fill-rule:nonzero;fill:rgb(96.859741%,67.449951%,50.19989%);fill-opacity:1;" d="M 441.648438 350.835938 C 441.648438 350.835938 438.941406 349.265625 434.671875 339.851562 L 438.742188 335.371094 C 438.742188 335.371094 450.410156 338.023438 450.65625 348.886719 C 450.65625 348.886719 445.300781 354.734375 441.648438 350.835938 "/>
<path style=" stroke:none;fill-rule:nonzero;fill:rgb(89.408875%,85.099792%,90.589905%);fill-opacity:1;" d="M 393.324219 231.316406 C 393.324219 231.316406 404.5625 236.359375 406.730469 241.058594 L 416.917969 291.273438 L 427.476562 304.988281 L 442.925781 333.867188 C 442.925781 333.867188 438.621094 341.261719 431.8125 340.332031 L 400.753906 299.585938 L 386.421875 257.480469 C 386.421875 257.480469 380.53125 235.472656 393.324219 231.316406 "/>
<path style=" stroke:none;fill-rule:nonzero;fill:rgb(96.078491%,58.81958%,46.669006%);fill-opacity:1;" d="M 401.808594 573.03125 C 401.808594 573.03125 408.5625 575.304688 410.304688 569.601562 L 414.207031 554.457031 L 407.535156 556.496094 L 404.769531 565.5 L 401.808594 573.03125 "/>
<path style=" stroke:none;fill-rule:nonzero;fill:rgb(10.198975%,11.369324%,17.649841%);fill-opacity:1;" d="M 401.363281 578.457031 C 406.816406 577.582031 412.3125 573.324219 412.3125 573.324219 L 413.324219 568.464844 L 415.933594 571.539062 L 417.863281 570.511719 L 415.933594 559.816406 C 415.933594 559.816406 415.265625 554.027344 412.300781 552.457031 C 412.300781 552.457031 412.769531 554.613281 412.394531 556.710938 L 410.3125 565.804688 C 410.3125 565.804688 409.078125 571.976562 404.1875 572.789062 C 401.140625 573.332031 404.351562 566.695312 404.351562 566.695312 L 398.285156 578.167969 C 398.285156 578.167969 398.503906 578.910156 401.363281 578.457031 "/>
<path style=" stroke:none;fill-rule:nonzero;fill:rgb(96.078491%,58.81958%,46.669006%);fill-opacity:1;" d="M 343.789062 578.011719 C 343.789062 578.011719 349.582031 582.171875 352.910156 577.21875 L 361.058594 563.878906 L 354.082031 563.878906 L 348.820312 571.679688 L 343.789062 578.011719 "/>
<path style=" stroke:none;fill-rule:nonzero;fill:rgb(10.198975%,11.369324%,17.649841%);fill-opacity:1;" d="M 341.78125 583.074219 C 347.246094 583.835938 353.75 581.367188 353.75 581.367188 L 356.132812 577.015625 L 357.730469 580.722656 L 359.875 580.304688 L 361.152344 569.511719 C 361.152344 569.511719 362.199219 563.777344 359.820312 561.410156 C 359.820312 561.410156 359.640625 563.605469 358.667969 565.503906 L 354.023438 573.59375 C 354.023438 573.59375 351.042969 579.132812 346.128906 578.476562 C 343.0625 578.105469 348.0625 572.703125 348.0625 572.703125 L 338.914062 581.898438 C 338.914062 581.898438 338.914062 582.667969 341.78125 583.074219 "/>
<path style=" stroke:none;fill-rule:nonzero;fill:rgb(28.239441%,54.899597%,75.689697%);fill-opacity:1;" d="M 371.230469 325.703125 L 371.230469 360.664062 L 365.6875 449.183594 L 366.976562 468.746094 L 361.5 564.777344 C 361.5 564.777344 358.351562 566.5 353.402344 564.730469 L 342.945312 447.199219 L 337.40625 383.300781 C 337.085938 351.335938 335.914062 348.652344 343.265625 325.703125 L 349.074219 309.859375 L 371.230469 309.859375 L 371.230469 325.703125 "/>
<path style=" stroke:none;fill-rule:nonzero;fill:rgb(57.649231%,74.119568%,75.289917%);fill-opacity:1;" d="M 366.832031 431.019531 L 366.824219 431 L 367.734375 416.5 L 366.832031 431.019531 "/>
<path style=" stroke:none;fill-rule:nonzero;fill:rgb(23.139954%,44.709778%,61.959839%);fill-opacity:1;" d="M 366.824219 431 L 361.0625 379.757812 C 360.382812 375.09375 360.242188 370.199219 357.917969 365.96875 C 355.949219 362.371094 352.949219 359.515625 350.128906 356.597656 C 349.785156 356.246094 349.433594 355.902344 349.074219 355.5625 C 353.628906 356.914062 358.441406 357.453125 363.183594 357.453125 C 364.023438 357.453125 364.855469 357.433594 365.6875 357.398438 C 367.523438 357.332031 369.375 357.167969 371.230469 356.90625 L 369.554688 387.292969 L 367.734375 416.5 L 366.824219 431 "/>
<path style=" stroke:none;fill-rule:nonzero;fill:rgb(28.239441%,54.899597%,75.689697%);fill-opacity:1;" d="M 394.554688 325.703125 C 406.179688 344.679688 400.105469 372.375 400.105469 372.375 C 397.78125 384.113281 392.777344 443.574219 392.777344 443.574219 L 398.921875 457.65625 L 414.863281 554.742188 C 414.863281 554.742188 411.214844 557.4375 406.582031 557.304688 L 366.292969 439.558594 C 369.253906 360.238281 363.523438 336.207031 363.609375 325.703125 L 362.632812 309.859375 L 387.894531 309.859375 L 394.554688 325.703125 "/>
<path style=" stroke:none;fill-rule:nonzero;fill:rgb(96.859741%,67.449951%,50.19989%);fill-opacity:1;" d="M 374.984375 234.898438 C 374.984375 234.898438 374.4375 264.085938 394.738281 257.628906 C 394.738281 257.628906 408.003906 242.203125 392.246094 231.316406 L 374.984375 234.898438 "/>
<path style=" stroke:none;fill-rule:nonzero;fill:rgb(96.859741%,67.449951%,50.19989%);fill-opacity:1;" d="M 361.285156 230.222656 L 376.976562 230.222656 L 376.976562 206.808594 L 361.285156 206.808594 L 361.285156 230.222656 "/>
<path style=" stroke:none;fill-rule:nonzero;fill:rgb(96.078491%,58.81958%,41.569519%);fill-opacity:1;" d="M 361.285156 216.664062 L 361.285156 206.808594 L 376.976562 206.808594 L 376.976562 218.515625 C 371.433594 218.570312 369.132812 218.515625 361.285156 216.664062 "/>
<path style=" stroke:none;fill-rule:nonzero;fill:rgb(96.859741%,67.449951%,50.19989%);fill-opacity:1;" d="M 339.542969 237.972656 C 343.265625 232.214844 349.109375 230.648438 349.109375 230.648438 L 363.117188 225.449219 L 376.484375 225.449219 L 390.484375 230.648438 C 390.484375 230.648438 396.328125 232.214844 400.050781 237.972656 L 339.542969 237.972656 "/>
<path style=" stroke:none;fill-rule:nonzero;fill:rgb(96.859741%,67.449951%,50.19989%);fill-opacity:1;" d="M 382.046875 204.070312 C 381.425781 205.363281 380.589844 206.546875 379.449219 207.566406 C 374.363281 212.101562 367.683594 215.15625 360.804688 214.894531 C 343.160156 206.339844 350.3125 171.960938 350.3125 171.960938 C 353.648438 155.503906 367.792969 156.085938 367.792969 156.085938 C 378.5 156.03125 388.054688 161.46875 389.265625 172.804688 C 389.726562 177.148438 388.71875 181.757812 388.335938 186.066406 C 388.054688 189.234375 387.542969 192.382812 386.410156 195.371094 C 385.265625 198.421875 383.445312 201.144531 382.046875 204.070312 "/>
<path style=" stroke:none;fill-rule:nonzero;fill:rgb(96.859741%,67.449951%,50.19989%);fill-opacity:1;" d="M 384.199219 190.980469 C 384.199219 190.980469 386.433594 185.667969 390.707031 188.011719 C 390.707031 188.011719 393.246094 189.515625 391.214844 193.65625 C 391.214844 193.65625 388.484375 199.136719 384.199219 196.835938 L 384.199219 190.980469 "/>
<path style=" stroke:none;fill-rule:nonzero;fill:rgb(96.859741%,67.449951%,50.19989%);fill-opacity:1;" d="M 381.292969 255.347656 L 343.964844 255.347656 L 343.964844 233.304688 L 381.292969 233.304688 L 381.292969 255.347656 "/>
<path style=" stroke:none;fill-rule:nonzero;fill:rgb(84.309387%,30.198669%,56.858826%);fill-opacity:1;" d="M 357.960938 227.160156 L 350.070312 230.089844 C 350.070312 230.089844 347.34375 245.550781 341.335938 254.480469 C 341.335938 254.480469 334.179688 269.859375 343.964844 279.089844 L 343.964844 289.730469 L 334.855469 346.300781 C 359 357.773438 404.628906 348.363281 404.628906 348.363281 L 396.117188 292.101562 L 396.039062 266.03125 C 378.128906 254.261719 389.585938 230.078125 389.585938 230.078125 L 380.957031 226.875 C 380.957031 226.875 382.34375 254.457031 365.003906 253.679688 C 365.003906 253.679688 340.996094 257.089844 357.960938 227.160156 "/>
<path style=" stroke:none;fill-rule:nonzero;fill:rgb(89.408875%,85.099792%,90.589905%);fill-opacity:1;" d="M 394.585938 230.917969 L 380.46875 226.617188 L 374.996094 272.230469 L 382.722656 433.089844 C 382.722656 433.089844 407.847656 431.230469 416.121094 415.90625 L 408.722656 340.800781 C 408.722656 340.800781 402.8125 310.492188 396.117188 292.101562 L 403.925781 246.8125 C 403.925781 246.8125 405.3125 236.171875 394.585938 230.917969 "/>
<path style=" stroke:none;fill-rule:nonzero;fill:rgb(89.408875%,85.099792%,90.589905%);fill-opacity:1;" d="M 329.746094 338.324219 L 314.65625 419.5625 C 325.621094 430.507812 347.566406 433.515625 347.566406 433.515625 L 358.070312 270.613281 L 357.960938 227.160156 L 346.679688 229.078125 C 338.820312 232.503906 335.046875 251.007812 335.046875 251.007812 C 335.046875 251.007812 329.652344 267.828125 338.121094 281.730469 L 339.207031 294.613281 C 339.207031 294.613281 333.941406 316.320312 329.746094 338.324219 "/>
<path style=" stroke:none;fill-rule:nonzero;fill:rgb(76.858521%,77.648926%,83.918762%);fill-opacity:1;" d="M 351.335938 229.003906 C 351.003906 231.390625 350.5625 233.75 350.097656 236.09375 C 349.632812 238.449219 349.109375 240.777344 348.582031 243.113281 L 347.957031 241.859375 C 350.441406 242.789062 352.929688 243.691406 355.394531 244.675781 L 357.007812 245.324219 L 355.828125 246.617188 C 354.816406 247.726562 353.820312 248.855469 352.78125 249.933594 C 351.746094 251.019531 350.734375 252.128906 349.679688 253.199219 L 349.886719 251.925781 L 351.769531 256.421875 C 352.371094 257.933594 352.988281 259.4375 353.570312 260.953125 C 354.742188 263.992188 355.867188 267.042969 356.855469 270.15625 C 355.171875 267.359375 353.617188 264.496094 352.113281 261.617188 C 351.355469 260.175781 350.636719 258.71875 349.898438 257.269531 L 347.769531 252.890625 L 347.445312 252.226562 L 347.972656 251.617188 C 348.960938 250.484375 349.984375 249.386719 350.988281 248.269531 C 351.984375 247.148438 353.03125 246.070312 354.058594 244.972656 L 354.492188 246.917969 C 352.035156 245.929688 349.613281 244.851562 347.179688 243.8125 L 346.277344 243.429688 L 346.554688 242.558594 C 347.28125 240.28125 348.011719 238.003906 348.804688 235.738281 C 349.59375 233.484375 350.40625 231.230469 351.335938 229.003906 "/>
<path style=" stroke:none;fill-rule:nonzero;fill:rgb(76.858521%,77.648926%,83.918762%);fill-opacity:1;" d="M 388.257812 229.355469 C 388.761719 232.542969 388.976562 234.644531 389.351562 237.84375 C 389.714844 241.039062 390.035156 244.238281 390.335938 247.441406 L 390.402344 248.164062 L 389.667969 248.457031 C 388.351562 248.992188 387.023438 249.484375 385.710938 250 C 384.382812 250.503906 383.074219 251.03125 381.742188 251.511719 L 382.085938 249.460938 C 384.464844 251.359375 386.871094 253.234375 389.210938 255.183594 L 390.132812 255.941406 L 389.417969 256.867188 C 388.375 258.21875 387.335938 259.582031 386.246094 260.902344 C 385.183594 262.246094 384.09375 263.570312 382.980469 264.871094 C 381.886719 266.191406 380.746094 267.46875 379.601562 268.757812 C 378.453125 270.03125 376.273438 272.191406 375.050781 273.410156 C 375.894531 271.898438 377.804688 269.53125 378.714844 268.078125 C 379.636719 266.636719 380.5625 265.1875 381.527344 263.773438 C 382.488281 262.347656 383.460938 260.9375 384.460938 259.550781 C 385.4375 258.144531 386.460938 256.773438 387.480469 255.394531 L 387.6875 257.078125 C 385.289062 255.203125 382.945312 253.246094 380.585938 251.320312 L 378.949219 249.980469 L 380.933594 249.265625 C 382.265625 248.78125 383.609375 248.351562 384.949219 247.890625 C 386.292969 247.449219 387.628906 246.980469 388.980469 246.550781 L 388.308594 247.566406 C 388.199219 244.359375 388.109375 241.140625 388.066406 237.925781 C 388.03125 234.703125 388.167969 232.582031 388.257812 229.355469 "/>
<path style=" stroke:none;fill-rule:nonzero;fill:rgb(46.669006%,27.059937%,13.328552%);fill-opacity:1;" d="M 383.589844 195.226562 C 383.589844 195.226562 384.292969 186.242188 391.476562 188.347656 C 391.476562 188.347656 396.675781 182.4375 395.976562 170.484375 C 395.976562 170.484375 397.359375 155.527344 378.515625 149.691406 C 378.515625 149.691406 346.722656 142.613281 349.617188 166.140625 C 349.617188 166.140625 365.566406 183.8125 380.503906 185.34375 L 383.589844 195.226562 "/>
<path style=" stroke:none;fill-rule:nonzero;fill:rgb(9.01947%,44.709778%,76.078796%);fill-opacity:1;" d="M 370.550781 284.300781 L 372.386719 284.300781 L 372.386719 293.957031 C 372.386719 297.109375 370.695312 300.054688 367.976562 301.648438 L 367.046875 300.058594 C 369.207031 298.796875 370.550781 296.457031 370.550781 293.957031 L 370.550781 284.300781 "/>
<path style=" stroke:none;fill-rule:nonzero;fill:rgb(5.488586%,8.239746%,18.429565%);fill-opacity:1;" d="M 367.4375 299.25 L 360.785156 298.394531 C 359.957031 298.394531 359.285156 299.5 359.285156 300.855469 C 359.285156 302.214844 359.957031 303.316406 360.785156 303.316406 L 367.4375 302.453125 C 367.4375 302.453125 368.316406 302.1875 368.3125 300.855469 C 368.3125 300.855469 368.4375 299.386719 367.4375 299.25 "/>
<path style=" stroke:none;fill-rule:nonzero;fill:rgb(9.01947%,44.709778%,76.078796%);fill-opacity:1;" d="M 337.53125 284.300781 L 339.371094 284.300781 L 339.371094 293.957031 C 339.371094 296.457031 340.710938 298.796875 342.871094 300.058594 L 341.945312 301.648438 C 339.226562 300.054688 337.53125 297.109375 337.53125 293.957031 L 337.53125 284.300781 "/>
<path style=" stroke:none;fill-rule:nonzero;fill:rgb(5.488586%,8.239746%,18.429565%);fill-opacity:1;" d="M 342.480469 299.25 L 349.136719 298.394531 C 349.964844 298.394531 350.632812 299.5 350.632812 300.855469 C 350.632812 302.214844 349.964844 303.316406 349.136719 303.316406 L 342.480469 302.453125 C 342.480469 302.453125 341.605469 302.1875 341.609375 300.855469 C 341.609375 300.855469 341.484375 299.386719 342.480469 299.25 "/>
<path style=" stroke:none;fill-rule:nonzero;fill:rgb(12.159729%,17.248535%,38.819885%);fill-opacity:1;" d="M 354.976562 262.160156 C 364.957031 262.160156 373.078125 270.289062 373.078125 280.277344 L 373.078125 284.882812 L 369.863281 284.882812 L 369.863281 280.277344 C 369.863281 272.0625 363.1875 265.375 354.976562 265.375 C 346.773438 265.375 340.097656 272.0625 340.097656 280.277344 L 340.097656 284.882812 L 336.878906 284.882812 L 336.878906 280.277344 C 336.878906 270.289062 344.996094 262.160156 354.976562 262.160156 "/>
<path style=" stroke:none;fill-rule:nonzero;fill:rgb(5.488586%,8.239746%,18.429565%);fill-opacity:1;" d="M 352.230469 260.972656 L 357.726562 260.972656 L 357.726562 265.671875 L 352.230469 265.671875 L 352.230469 260.972656 "/>
<path style=" stroke:none;fill-rule:nonzero;fill:rgb(12.159729%,17.248535%,38.819885%);fill-opacity:1;" d="M 361.257812 223.953125 C 357.019531 225.867188 354.058594 230.128906 354.058594 235.070312 L 354.058594 261.472656 L 355.898438 261.472656 L 355.898438 235.070312 C 355.898438 231.171875 358.0625 227.769531 361.257812 226.003906 L 361.257812 223.953125 "/>
<path style=" stroke:none;fill-rule:nonzero;fill:rgb(37.649536%,35.688782%,70.199585%);fill-opacity:1;" d="M 392.066406 288.859375 C 392.066406 292.558594 389.070312 295.554688 385.378906 295.554688 C 381.683594 295.554688 378.695312 292.558594 378.695312 288.859375 C 378.695312 285.164062 381.683594 282.164062 385.378906 282.164062 C 389.070312 282.164062 392.066406 285.164062 392.066406 288.859375 "/>
<path style=" stroke:none;fill-rule:nonzero;fill:rgb(23.529053%,30.198669%,63.529968%);fill-opacity:1;" d="M 388.980469 288.859375 C 388.980469 290.855469 387.367188 292.46875 385.378906 292.46875 C 383.386719 292.46875 381.777344 290.855469 381.777344 288.859375 C 381.777344 286.867188 383.386719 285.25 385.378906 285.25 C 387.367188 285.25 388.980469 286.867188 388.980469 288.859375 "/>
<path style=" stroke:none;fill-rule:nonzero;fill:rgb(12.159729%,17.248535%,38.819885%);fill-opacity:1;" d="M 377.417969 223.667969 L 377.222656 223.570312 L 377.003906 223.570312 L 377.003906 225.523438 C 384.351562 229.527344 384.464844 238.71875 384.464844 238.816406 L 384.464844 282.164062 L 386.292969 282.164062 L 386.292969 238.816406 C 386.292969 238.375 386.191406 228.0625 377.417969 223.667969 "/>
<g clip-path="url(#clip4)" clip-rule="nonzero">
<path style=" stroke:none;fill-rule:nonzero;fill:rgb(90.19928%,76.078796%,65.489197%);fill-opacity:1;" d="M 508.957031 584.019531 C 508.957031 592.296875 548.617188 598.996094 597.542969 598.996094 C 646.472656 598.996094 686.132812 592.296875 686.132812 584.019531 C 686.132812 575.742188 646.472656 569.035156 597.542969 569.035156 C 548.617188 569.035156 508.957031 575.742188 508.957031 584.019531 "/>
</g>
<path style=" stroke:none;fill-rule:nonzero;fill:rgb(96.859741%,67.449951%,50.19989%);fill-opacity:1;" d="M 545.230469 248.417969 L 529.617188 310.351562 C 529.617188 310.351562 527.769531 315.976562 533.980469 322.132812 C 533.980469 322.132812 541.304688 330.171875 552.941406 308.65625 L 576.71875 249.800781 C 576.71875 249.800781 562.589844 226.054688 545.230469 248.417969 "/>
<path style=" stroke:none;fill-rule:nonzero;fill:rgb(96.859741%,67.449951%,50.19989%);fill-opacity:1;" d="M 545.742188 322.921875 L 530.078125 342.121094 L 507.65625 368.871094 L 501.785156 364.703125 L 515.960938 335.898438 C 523.011719 323.4375 530.679688 307.894531 530.679688 307.894531 L 550.042969 298.414062 L 552.722656 309.527344 C 552.722656 309.527344 549.777344 316.792969 545.742188 322.921875 "/>
<path style=" stroke:none;fill-rule:nonzero;fill:rgb(96.859741%,67.449951%,50.19989%);fill-opacity:1;" d="M 502.101562 364.441406 L 493.609375 368.933594 L 486.476562 375.308594 L 491.097656 375.207031 L 483.90625 384.300781 C 483.90625 384.300781 489.507812 387.195312 492.671875 387.121094 C 492.671875 387.121094 503.03125 382.769531 504.554688 378.242188 L 507.972656 368.609375 L 502.101562 364.441406 "/>
<path style=" stroke:none;fill-rule:nonzero;fill:rgb(81.17981%,79.60968%,85.488892%);fill-opacity:1;" d="M 499.746094 363.226562 L 527.429688 310.679688 L 545.015625 245.992188 C 556.476562 220.46875 566.691406 213.917969 566.691406 213.917969 C 583.503906 227.839844 573.203125 262.179688 573.203125 262.179688 C 573.203125 262.179688 552.855469 316.316406 552.289062 317.417969 C 551.722656 318.523438 511.804688 371.007812 511.804688 371.007812 C 511.804688 371.007812 504.976562 369.976562 499.746094 363.226562 "/>
<path style=" stroke:none;fill-rule:nonzero;fill:rgb(96.859741%,67.449951%,50.19989%);fill-opacity:1;" d="M 591.859375 566.488281 L 580.585938 566.457031 L 580.625 548.160156 L 591.898438 548.1875 L 591.859375 566.488281 "/>
<path style=" stroke:none;fill-rule:nonzero;fill:rgb(10.198975%,11.369324%,17.649841%);fill-opacity:1;" d="M 580.761719 562.886719 L 562.1875 573.472656 L 548.492188 579.84375 C 548.492188 579.84375 545.175781 581.386719 548.921875 583.164062 L 571.027344 583.222656 L 580.585938 581.773438 L 594.625 578.144531 L 592.011719 562.917969 L 580.761719 562.886719 "/>
<path style=" stroke:none;fill-rule:nonzero;fill:rgb(14.509583%,21.958923%,30.198669%);fill-opacity:1;" d="M 617.679688 334.445312 L 564.132812 334.445312 L 566.496094 457.582031 L 574.445312 566.488281 C 574.445312 566.488281 584.472656 568.523438 592.226562 564.136719 L 598.84375 462.140625 L 597.195312 442.292969 L 617.679688 334.445312 "/>
<path style=" stroke:none;fill-rule:nonzero;fill:rgb(20.388794%,10.198975%,7.058716%);fill-opacity:1;" d="M 577.605469 169.972656 C 577.605469 171.433594 578.007812 175.054688 578.027344 178.410156 C 572.558594 168.714844 569.964844 158.929688 569.753906 147.730469 C 570.097656 145.945312 571.828125 142.980469 573.546875 141.867188 C 577.171875 139.496094 580.523438 141.035156 582.519531 145.652344 C 584.441406 150.097656 578.929688 155.9375 578.15625 160.359375 C 577.601562 163.523438 577.605469 166.6875 577.605469 169.972656 "/>
<path style=" stroke:none;fill-rule:nonzero;fill:rgb(96.859741%,67.449951%,50.19989%);fill-opacity:1;" d="M 611.515625 569.019531 L 622.707031 567.679688 L 620.542969 549.515625 L 609.351562 550.851562 L 611.515625 569.019531 "/>
<path style=" stroke:none;fill-rule:nonzero;fill:rgb(10.198975%,11.369324%,17.649841%);fill-opacity:1;" d="M 622.117188 564.15625 L 641.792969 572.515625 L 656.136719 577.246094 C 656.136719 577.246094 659.609375 578.386719 656.09375 580.585938 L 634.148438 583.222656 L 624.480469 582.898438 L 610.117188 580.925781 L 610.945312 565.492188 L 622.117188 564.15625 "/>
<path style=" stroke:none;fill-rule:nonzero;fill:rgb(19.60907%,29.40979%,41.178894%);fill-opacity:1;" d="M 591.128906 334.445312 L 602.464844 427.792969 L 601.359375 452.261719 L 610.878906 566.730469 C 619.085938 570.183594 628.8125 566.996094 628.8125 566.996094 L 635.359375 449.167969 L 637.703125 334.445312 L 591.128906 334.445312 "/>
<path style=" stroke:none;fill-rule:nonzero;fill:rgb(96.859741%,67.449951%,50.19989%);fill-opacity:1;" d="M 606.46875 212.703125 L 583.648438 212.703125 L 583.648438 190.339844 L 606.46875 190.339844 L 606.46875 212.703125 "/>
<path style=" stroke:none;fill-rule:nonzero;fill:rgb(96.078491%,58.81958%,41.569519%);fill-opacity:1;" d="M 606.46875 196.210938 L 606.46875 190.339844 L 583.648438 190.339844 L 583.648438 203.292969 C 591.804688 203.898438 603.214844 203.363281 606.46875 196.210938 "/>
<path style=" stroke:none;fill-rule:nonzero;fill:rgb(96.859741%,67.449951%,50.19989%);fill-opacity:1;" d="M 610.472656 221.597656 L 615.210938 208.589844 L 606.46875 206.015625 L 583.609375 206.015625 L 567.117188 214.902344 L 570.398438 221.597656 L 610.472656 221.597656 "/>
<path style=" stroke:none;fill-rule:nonzero;fill:rgb(35.688782%,67.449951%,55.288696%);fill-opacity:1;" d="M 639.277344 367.878906 C 643.769531 289.292969 644.066406 233.847656 644.066406 233.847656 C 643.648438 215.527344 629.152344 212.703125 629.152344 212.703125 L 606.46875 205.121094 C 604.484375 215.691406 589.210938 213.875 589.210938 213.875 C 579.578125 213.808594 583.609375 206.015625 583.609375 206.015625 L 567.117188 214.902344 C 567.117188 214.902344 561.199219 221.945312 561.199219 230.648438 L 561.199219 369.535156 C 561.199219 369.535156 607.941406 378.628906 639.277344 367.878906 "/>
<path style=" stroke:none;fill-rule:nonzero;fill:rgb(96.859741%,67.449951%,50.19989%);fill-opacity:1;" d="M 578.917969 190.914062 C 582.503906 197.863281 586.285156 199.132812 586.285156 199.132812 C 586.285156 199.132812 590.539062 200.238281 593.199219 199.359375 C 595.6875 198.441406 600.230469 196.273438 600.230469 196.273438 C 609.59375 190.46875 610.386719 189.621094 611.269531 183.847656 C 611.296875 183.667969 612.003906 154.707031 612.003906 154.707031 C 610.035156 140.183594 594.496094 140.65625 592.164062 140.804688 C 589.832031 140.804688 574.769531 140.132812 573.730469 154.746094 C 573.730469 154.746094 573.183594 161.695312 573.96875 171.832031 C 573.96875 171.832031 573.683594 181.226562 578.917969 190.914062 "/>
<path style=" stroke:none;fill-rule:nonzero;fill:rgb(20.388794%,10.198975%,7.058716%);fill-opacity:1;" d="M 609.972656 165.246094 C 609.378906 166.425781 609.128906 167.722656 608.9375 169.015625 C 608.488281 171.960938 608.195312 174.996094 607.363281 177.867188 C 606.851562 179.628906 606.054688 181.265625 604.328125 182.257812 C 602.613281 183.246094 600.375 182.839844 598.519531 182.597656 C 595.597656 182.214844 592.574219 181.234375 589.617188 181.304688 C 586.972656 181.363281 583.753906 183.503906 581.191406 182.421875 C 577.238281 180.75 575.488281 176.09375 573.953125 171.617188 L 573.96875 171.832031 C 573.96875 171.832031 573.683594 187.445312 578.917969 197.132812 C 582.503906 204.078125 586.285156 205.347656 586.285156 205.347656 C 586.285156 205.347656 590.539062 206.449219 593.199219 205.570312 C 595.6875 204.65625 600.230469 202.488281 600.230469 202.488281 C 609.59375 196.6875 610.386719 189.621094 611.269531 183.847656 C 611.289062 183.734375 611.558594 172.914062 611.765625 164.488281 C 610.96875 164.476562 610.277344 164.652344 609.972656 165.246094 "/>
<path style=" stroke:none;fill-rule:nonzero;fill:rgb(20.388794%,10.198975%,7.058716%);fill-opacity:1;" d="M 619.851562 150.261719 C 619.257812 165.203125 616.609375 176.1875 611.269531 183.433594 C 610.640625 180.964844 610.496094 176.503906 610.25 173.828125 C 609.527344 165.972656 609.703125 164.710938 608.761719 158.304688 C 608.140625 154.046875 607.414062 154.023438 603.28125 152.621094 C 600.488281 151.675781 592.777344 150.28125 590.300781 152.296875 C 590.300781 152.296875 585.976562 148.992188 574.398438 152.402344 C 574.398438 152.402344 567.117188 151.65625 569.753906 139.046875 C 569.753906 139.046875 570.054688 133.105469 576.339844 130.007812 C 576.339844 130.007812 575.191406 134.347656 577.464844 135.585938 C 577.464844 135.585938 582.210938 123.804688 601.617188 124.632812 C 601.617188 124.632812 598.519531 129.179688 600.789062 132.074219 C 600.789062 132.074219 600.585938 129.179688 606.46875 127.9375 C 606.46875 127.9375 606.363281 133.316406 609.875 134.554688 C 609.875 134.554688 619.503906 139.101562 619.851562 150.261719 "/>
<path style=" stroke:none;fill-rule:nonzero;fill:rgb(96.859741%,67.449951%,50.19989%);fill-opacity:1;" d="M 607.117188 176.609375 C 607.117188 176.609375 607.886719 163.640625 616.300781 167.191406 C 616.300781 167.191406 619 168.449219 617.253906 173.769531 C 617.253906 173.769531 614.703125 181.4375 608.941406 178.847656 L 607.117188 176.609375 "/>
<path style=" stroke:none;fill-rule:nonzero;fill:rgb(89.408875%,85.099792%,90.589905%);fill-opacity:1;" d="M 647.960938 440.285156 L 644.449219 250.265625 L 644.410156 231.738281 C 644.410156 216.207031 625.511719 210.34375 625.511719 210.34375 L 608.636719 205.121094 C 608.636719 205.121094 604.5 220.632812 595.4375 242.566406 L 606.882812 455.417969 C 606.882812 455.417969 639.667969 453.332031 647.960938 440.285156 "/>
<path style=" stroke:none;fill-rule:nonzero;fill:rgb(76.858521%,77.648926%,83.918762%);fill-opacity:1;" d="M 614.746094 207.140625 C 614.378906 210.9375 614.167969 214.738281 613.949219 218.539062 C 613.75 222.34375 613.609375 226.140625 613.488281 229.945312 L 614.402344 228.734375 C 612.796875 229.121094 611.210938 229.566406 609.613281 229.984375 C 608.023438 230.410156 606.421875 230.808594 604.839844 231.269531 L 602.496094 231.941406 L 604.1875 233.714844 C 606.722656 236.390625 609.226562 239.089844 611.820312 241.714844 L 611.539062 240.023438 C 610.132812 243.0625 608.714844 246.101562 607.359375 249.171875 C 605.976562 252.222656 604.625 255.296875 603.304688 258.378906 C 601.964844 261.460938 600.6875 264.566406 599.410156 267.671875 C 598.148438 270.78125 598.609375 270.996094 597.445312 274.160156 C 599.148438 271.253906 599.066406 271.21875 600.660156 268.261719 C 602.246094 265.296875 603.828125 262.339844 605.347656 259.347656 C 606.886719 256.363281 608.394531 253.371094 609.871094 250.355469 C 611.375 247.363281 612.820312 244.335938 614.269531 241.3125 L 614.707031 240.386719 L 613.992188 239.617188 C 611.476562 236.921875 608.882812 234.304688 606.316406 231.660156 L 605.65625 234.113281 C 607.242188 233.652344 608.804688 233.132812 610.382812 232.644531 C 611.953125 232.148438 613.535156 231.675781 615.097656 231.152344 L 616.035156 230.835938 L 616.003906 229.945312 C 615.890625 226.140625 615.746094 222.34375 615.550781 218.539062 C 615.332031 214.738281 615.117188 210.9375 614.746094 207.140625 "/>
<path style=" stroke:none;fill-rule:nonzero;fill:rgb(76.858521%,77.648926%,83.918762%);fill-opacity:1;" d="M 639.339844 371.679688 L 615.941406 380.21875 L 615.941406 387.40625 L 639.339844 378.039062 L 639.339844 371.679688 "/>
<path style=" stroke:none;fill-rule:nonzero;fill:rgb(89.408875%,85.099792%,90.589905%);fill-opacity:1;" d="M 550.582031 442.445312 L 556.597656 260.902344 L 555.773438 236.511719 C 556.183594 223.277344 566.691406 213.917969 566.691406 213.917969 L 580.605469 207.640625 C 580.605469 207.640625 580.691406 219.175781 589.75 241.109375 L 584.359375 456.769531 C 584.359375 456.769531 558.878906 455.488281 550.582031 442.445312 "/>
<path style=" stroke:none;fill-rule:nonzero;fill:rgb(76.858521%,77.648926%,83.918762%);fill-opacity:1;" d="M 572.773438 211.855469 C 573.140625 215.660156 573.628906 216.496094 573.84375 220.292969 C 574.039062 224.097656 574.183594 227.894531 574.300781 231.699219 L 573.390625 230.492188 C 574.992188 230.878906 576.585938 231.328125 578.179688 231.742188 C 579.773438 232.167969 581.375 232.566406 582.957031 233.023438 L 585.292969 233.699219 L 583.609375 235.472656 C 581.074219 238.144531 578.5625 240.847656 575.976562 243.46875 L 576.25 241.777344 C 577.664062 244.820312 579.078125 247.855469 580.4375 250.929688 C 581.820312 253.980469 583.164062 257.058594 584.484375 260.140625 C 585.832031 263.214844 587.109375 266.320312 588.386719 269.425781 C 589.644531 272.535156 588.289062 272.449219 589.445312 275.609375 C 587.742188 272.703125 588.730469 272.972656 587.132812 270.015625 C 585.550781 267.058594 583.96875 264.097656 582.449219 261.101562 C 580.910156 258.117188 579.394531 255.125 577.925781 252.117188 C 576.421875 249.117188 574.972656 246.09375 573.527344 243.066406 L 573.082031 242.140625 L 573.804688 241.375 C 576.320312 238.679688 578.914062 236.058594 581.480469 233.414062 L 582.132812 235.867188 C 580.550781 235.410156 578.984375 234.890625 577.414062 234.402344 C 575.839844 233.902344 574.261719 233.433594 572.695312 232.90625 L 571.761719 232.597656 L 571.789062 231.699219 C 571.902344 227.894531 572.046875 224.097656 572.246094 220.292969 C 572.457031 216.496094 572.410156 215.660156 572.773438 211.855469 "/>
<path style=" stroke:none;fill-rule:nonzero;fill:rgb(76.858521%,77.648926%,83.918762%);fill-opacity:1;" d="M 559.207031 373.84375 L 582.605469 382.378906 L 582.605469 389.5625 L 559.207031 380.199219 L 559.207031 373.84375 "/>
<path style=" stroke:none;fill-rule:nonzero;fill:rgb(96.859741%,67.449951%,50.19989%);fill-opacity:1;" d="M 632.046875 260.382812 L 651.59375 308.253906 C 651.59375 308.253906 653.804688 313.742188 662.523438 314.433594 C 662.523438 314.433594 675.46875 318.46875 668.324219 291.886719 L 655.058594 246.148438 C 655.058594 246.148438 630.898438 232.078125 632.046875 260.382812 "/>
<path style=" stroke:none;fill-rule:nonzero;fill:rgb(96.859741%,67.449951%,50.19989%);fill-opacity:1;" d="M 668.753906 313.820312 L 658.675781 338.289062 L 641.761719 367.074219 L 635.117188 364.308594 L 642.570312 333.082031 C 646.699219 319.363281 648.953125 311.167969 648.953125 311.167969 L 662.644531 292.183594 L 667.714844 302.429688 C 667.714844 302.429688 671.332031 306.953125 668.753906 313.820312 "/>
<path style=" stroke:none;fill-rule:nonzero;fill:rgb(96.859741%,67.449951%,50.19989%);fill-opacity:1;" d="M 635.367188 363.988281 L 628.078125 370.253906 L 622.527344 378.046875 L 627.011719 376.917969 L 622.015625 387.386719 C 622.015625 387.386719 628.109375 388.960938 631.183594 388.191406 C 631.183594 388.191406 640.328125 381.65625 640.808594 376.898438 L 642.015625 366.746094 L 635.367188 363.988281 "/>
<path style=" stroke:none;fill-rule:nonzero;fill:rgb(81.17981%,79.60968%,85.488892%);fill-opacity:1;" d="M 672.847656 303.191406 C 672.847656 303.191406 656.609375 235.027344 639.628906 217.671875 C 639.628906 217.671875 633.382812 211.050781 625.023438 216.167969 C 625.023438 216.167969 616.019531 224.019531 619.054688 235.441406 L 648.488281 307.335938 C 648.488281 307.335938 637.449219 346.554688 633.5625 361.910156 C 633.5625 361.910156 638.167969 369.996094 647.664062 368.433594 L 672.847656 303.191406 "/>
<path style=" stroke:none;fill-rule:nonzero;fill:rgb(9.01947%,44.709778%,76.078796%);fill-opacity:1;" d="M 592.914062 264.277344 L 594.75 264.277344 L 594.75 273.933594 C 594.75 277.085938 593.058594 280.035156 590.339844 281.625 L 589.410156 280.035156 C 591.574219 278.777344 592.914062 276.4375 592.914062 273.933594 L 592.914062 264.277344 "/>
<path style=" stroke:none;fill-rule:nonzero;fill:rgb(5.488586%,8.239746%,18.429565%);fill-opacity:1;" d="M 589.796875 279.238281 L 583.144531 278.371094 C 582.316406 278.371094 581.652344 279.472656 581.652344 280.835938 C 581.652344 282.191406 582.316406 283.292969 583.144531 283.292969 L 589.796875 282.433594 C 589.796875 282.433594 590.679688 282.167969 590.671875 280.835938 C 590.671875 280.835938 590.800781 279.363281 589.796875 279.238281 "/>
<path style=" stroke:none;fill-rule:nonzero;fill:rgb(9.01947%,44.709778%,76.078796%);fill-opacity:1;" d="M 559.898438 264.277344 L 561.730469 264.277344 L 561.730469 273.933594 C 561.730469 276.4375 563.074219 278.777344 565.234375 280.035156 L 564.304688 281.625 C 561.585938 280.035156 559.898438 277.085938 559.898438 273.933594 L 559.898438 264.277344 "/>
<path style=" stroke:none;fill-rule:nonzero;fill:rgb(5.488586%,8.239746%,18.429565%);fill-opacity:1;" d="M 564.84375 279.238281 L 571.5 278.371094 C 572.328125 278.371094 573 279.472656 573 280.835938 C 573 282.191406 572.328125 283.292969 571.5 283.292969 L 564.84375 282.433594 C 564.84375 282.433594 563.96875 282.167969 563.972656 280.835938 C 563.972656 280.835938 563.847656 279.363281 564.84375 279.238281 "/>
<path style=" stroke:none;fill-rule:nonzero;fill:rgb(12.159729%,17.248535%,38.819885%);fill-opacity:1;" d="M 577.34375 242.140625 C 587.320312 242.140625 595.4375 250.265625 595.4375 260.261719 L 595.4375 264.867188 L 592.226562 264.867188 L 592.226562 260.261719 C 592.226562 252.042969 585.550781 245.355469 577.34375 245.355469 C 569.132812 245.355469 562.457031 252.042969 562.457031 260.261719 L 562.457031 264.867188 L 559.246094 264.867188 L 559.246094 260.261719 C 559.246094 250.265625 567.363281 242.140625 577.34375 242.140625 "/>
<path style=" stroke:none;fill-rule:nonzero;fill:rgb(5.488586%,8.239746%,18.429565%);fill-opacity:1;" d="M 574.589844 240.953125 L 580.09375 240.953125 L 580.09375 245.652344 L 574.589844 245.652344 L 574.589844 240.953125 "/>
<path style=" stroke:none;fill-rule:nonzero;fill:rgb(12.159729%,17.248535%,38.819885%);fill-opacity:1;" d="M 583.621094 203.933594 C 579.386719 205.847656 576.425781 210.105469 576.425781 215.050781 L 576.425781 241.453125 L 578.257812 241.453125 L 578.257812 215.050781 C 578.257812 211.148438 580.425781 207.746094 583.621094 205.976562 L 583.621094 203.933594 "/>
<path style=" stroke:none;fill-rule:nonzero;fill:rgb(37.649536%,35.688782%,70.199585%);fill-opacity:1;" d="M 621.53125 268.511719 C 621.53125 272.207031 618.535156 275.207031 614.839844 275.207031 C 611.148438 275.207031 608.15625 272.207031 608.15625 268.511719 C 608.15625 264.8125 611.148438 261.816406 614.839844 261.816406 C 618.535156 261.816406 621.53125 264.8125 621.53125 268.511719 "/>
<path style=" stroke:none;fill-rule:nonzero;fill:rgb(23.529053%,30.198669%,63.529968%);fill-opacity:1;" d="M 618.445312 268.511719 C 618.445312 270.5 616.832031 272.113281 614.839844 272.113281 C 612.851562 272.113281 611.238281 270.5 611.238281 268.511719 C 611.238281 266.519531 612.851562 264.902344 614.839844 264.902344 C 616.832031 264.902344 618.445312 266.519531 618.445312 268.511719 "/>
<path style=" stroke:none;fill-rule:nonzero;fill:rgb(12.159729%,17.248535%,38.819885%);fill-opacity:1;" d="M 606.882812 203.3125 L 606.683594 203.214844 L 606.46875 203.214844 L 606.46875 205.175781 C 613.8125 209.175781 613.929688 218.371094 613.929688 218.464844 L 613.929688 261.816406 L 615.757812 261.816406 L 615.757812 218.464844 C 615.757812 218.027344 615.65625 207.707031 606.882812 203.3125 "/>
</g>
</svg>
